<svg viewBox="0 0 1000 600" focusable="false" class="chakra-icon css-wuqh7c"><path fill="#fff" d="M893.94,181.91l34.57-74.69L609.79,241.86c-13.55,5.72-25.41,14.82-34.45,26.43L500,365.04l-75.35-96.75 c-9.04-11.6-20.9-20.7-34.45-26.43L71.49,107.22l34.57,74.69l258.26,109.1v27.96L122.14,216.66l34.57,74.69l207.61,87.7v27.96 L172.8,326.1l34.58,74.69l156.94,66.31l60.77,25.67V369.26L500,465.43l74.92-96.17v123.52l60.77-25.67l156.94-66.31l34.58-74.69 l-191.52,80.91v-27.96l207.61-87.7l34.57-74.69L635.68,318.97v-27.96L893.94,181.91z"></path></svg>