<?xml version="1.0" encoding="utf-8"?>
<!-- Generator: Adobe Illustrator 27.0.1, SVG Export Plug-In . SVG Version: 6.00 Build 0)  -->
<svg version="1.1" id="Layer_1" xmlns="http://www.w3.org/2000/svg" xmlns:xlink="http://www.w3.org/1999/xlink" x="0px" y="0px"
	 viewBox="0 0 784.1 259.2" style="enable-background:new 0 0 784.1 259.2;" xml:space="preserve">
<style type="text/css">
	.st0{display:none;}
	.st1{fill:#F5841F;}
	.st2{fill:#FFFFFF;}
	.st3{fill:#E27625;}
	.st4{fill:#D7C1B3;}
	.st5{fill:#2F343B;}
	.st6{fill:#CC6228;}
	.st7{fill:#C0AD9E;}
	.st8{fill:#763E1A;}
</style>
<g id="bg_x28_do_not_export_x29_" class="st0">
</g>
<g>
	<g id="MM_Head_background__x28_Do_not_edit_x29_">
		<path class="st1" d="M192.6,69.7l-40.6,15l0,0l0,0h-33.8l0,0l-40.6-15l0.3,0.2l-0.3-0.2l-6.3,18.7l4.2,20.1l-2.7,2l4,3l-3.1,2.3
			l4,3.6l-2.5,1.8L81,128l-8.7,26.8l0,0l0,0l8.1,27.4l28.4-7.7l0,0l0,0l0,0l0,0l0,0l0,0l0,0l0,0l0,0l0,0l5.5,4.5l11.2,7.6h19.2
			L156,179l5.5-4.5l0,0l0,0l0,0l0,0l0,0l0,0l0,0l0,0l0,0l0,0l28.4,7.7l8.1-27.4l0,0l0,0l-8.8-26.8 M189.1,128l5.8-6.7l-2.5-1.8
			l4-3.6l-3.1-2.3l4-3l-2.6-2l4.2-20.1l-6.3-18.7 M161.4,174.3L161.4,174.3 M108.7,174.3L108.7,174.3"/>
	</g>
	<g id="Logos">
		<g>
			<g>
				<path class="st2" d="M638,128.5c-3.3-2.2-7-3.8-10.5-5.7c-2.3-1.3-4.7-2.4-6.6-4c-3.3-2.7-2.6-8.1,0.8-10.5
					c5-3.3,13.3-1.5,14.2,5.3c0,0.1,0.1,0.2,0.3,0.2h7.6c0.2,0,0.3-0.1,0.3-0.3c-0.4-4.7-2.2-8.6-5.5-11.1
					c-3.2-2.4-6.8-3.7-10.7-3.7c-20,0-21.8,21.1-11,27.8c1.2,0.8,11.8,6.1,15.5,8.4c3.7,2.3,4.9,6.5,3.3,9.9c-1.5,3-5.3,5.1-9.1,4.9
					c-4.2-0.2-7.4-2.5-8.5-6c-0.2-0.6-0.3-1.9-0.3-2.4c0-0.1-0.1-0.3-0.3-0.3h-8.2c-0.1,0-0.3,0.1-0.3,0.3c0,5.9,1.5,9.2,5.5,12.2
					c3.8,2.8,7.9,4,12.2,4c11.2,0,17-6.3,18.1-12.9C645.6,138.1,643.7,132.3,638,128.5z"/>
				<path class="st2" d="M287.2,99.8h-12.4c-0.1,0-0.2,0.1-0.3,0.2l-6.7,22.2c-0.1,0.3-0.5,0.3-0.6,0l-6.7-22.2
					c0-0.1-0.1-0.2-0.3-0.2h-12.5c-0.1,0-0.3,0.1-0.3,0.3v56.6c0,0.1,0.1,0.3,0.3,0.3h8.2c0.1,0,0.3-0.1,0.3-0.3v-43
					c0-0.3,0.5-0.4,0.6-0.1l6.8,22.3l0.5,1.6c0,0.1,0.1,0.2,0.3,0.2h6.3c0.1,0,0.2-0.1,0.3-0.2l0.5-1.6l6.8-22.3
					c0.1-0.3,0.6-0.2,0.6,0.1v43c0,0.1,0.1,0.3,0.3,0.3h8.2c0.1,0,0.3-0.1,0.3-0.3v-56.6C287.5,99.9,287.4,99.8,287.2,99.8z"/>
				<path class="st2" d="M512.6,99.8c-0.1,0-0.2,0.1-0.3,0.2l-6.7,22.2c-0.1,0.3-0.5,0.3-0.6,0l-6.7-22.2c0-0.1-0.1-0.2-0.3-0.2
					h-12.5c-0.1,0-0.3,0.1-0.3,0.3v56.6c0,0.1,0.1,0.3,0.3,0.3h8.2c0.1,0,0.3-0.1,0.3-0.3v-43c0-0.3,0.5-0.4,0.6-0.1l6.8,22.3
					l0.5,1.6c0,0.1,0.1,0.2,0.3,0.2h6.3c0.1,0,0.2-0.1,0.3-0.2l0.5-1.6l6.8-22.3c0.1-0.3,0.6-0.2,0.6,0.1v43c0,0.1,0.1,0.3,0.3,0.3
					h8.2c0.1,0,0.3-0.1,0.3-0.3v-56.6c0-0.1-0.1-0.3-0.3-0.3C525.2,99.8,512.6,99.8,512.6,99.8z"/>
				<path class="st2" d="M407,99.8h-38.7c-0.1,0-0.3,0.1-0.3,0.3v7.1c0,0.1,0.1,0.3,0.3,0.3h15v49.2c0,0.1,0.1,0.3,0.3,0.3h8.2
					c0.1,0,0.3-0.1,0.3-0.3v-49.2h15c0.1,0,0.3-0.1,0.3-0.3v-7.1C407.3,99.9,407.2,99.8,407,99.8z"/>
				<path class="st2" d="M435.7,131.9l6-22.1c0.1-0.3,0.5-0.3,0.6,0l6,22.1c0,0.2-0.1,0.4-0.3,0.4h-12
					C435.8,132.3,435.6,132.1,435.7,131.9z M455.3,156.9h7.5c0.2,0,0.3-0.2,0.3-0.4l-15.4-56.8c0-0.1-0.1-0.2-0.3-0.2h-10.7
					c-0.1,0-0.2,0.1-0.3,0.2L421,156.5c0,0.2,0.1,0.4,0.3,0.4h7.5c0.1,0,0.2-0.1,0.3-0.2l4.5-16.5c0-0.1,0.1-0.2,0.3-0.2h16.5
					c0.1,0,0.2,0.1,0.3,0.2l4.5,16.5C455,156.8,455.2,156.9,455.3,156.9z"/>
				<path class="st2" d="M562.8,131.9l6-22.1c0.1-0.3,0.5-0.3,0.6,0l6,22.1c0,0.2-0.1,0.4-0.3,0.4h-12
					C562.9,132.3,562.7,132.1,562.8,131.9z M582.4,156.9h7.5c0.2,0,0.3-0.2,0.3-0.4l-15.4-56.8c0-0.1-0.1-0.2-0.3-0.2h-10.7
					c-0.1,0-0.2,0.1-0.3,0.2L548,156.5c0,0.2,0.1,0.4,0.3,0.4h7.5c0.1,0,0.2-0.1,0.3-0.2l4.5-16.5c0-0.1,0.1-0.2,0.3-0.2h16.5
					c0.1,0,0.2,0.1,0.3,0.2l4.5,16.5C582.1,156.8,582.2,156.9,582.4,156.9z"/>
				<path class="st2" d="M320.8,148.6V131c0-0.1,0.1-0.3,0.3-0.3h21.8c0.1,0,0.3-0.1,0.3-0.3v-7.1c0-0.1-0.1-0.3-0.3-0.3h-21.8
					c-0.1,0-0.3-0.1-0.3-0.3v-15c0-0.1,0.1-0.3,0.3-0.3h24.8c0.1,0,0.3-0.1,0.3-0.3V100c0-0.1-0.1-0.3-0.3-0.3h-33.6
					c-0.1,0-0.3,0.1-0.3,0.3v56.5c0,0.1,0.1,0.3,0.3,0.3h34.6c0.1,0,0.3-0.1,0.3-0.3V149c0-0.1-0.1-0.3-0.3-0.3H321
					C320.9,148.9,320.8,148.8,320.8,148.6z"/>
				<path class="st2" d="M712.8,156.5l-28.3-29.3c-0.1-0.1-0.1-0.3,0-0.4l25.5-26.5c0.2-0.2,0-0.5-0.2-0.5h-10.4
					c-0.1,0-0.1,0-0.2,0.1l-21.6,22.5c-0.2,0.2-0.5,0-0.5-0.2v-22.1c0-0.1-0.1-0.3-0.3-0.3h-8.2c-0.1,0-0.3,0.1-0.3,0.3v56.6
					c0,0.1,0.1,0.3,0.3,0.3h8.2c0.1,0,0.3-0.1,0.3-0.3v-24.9c0-0.2,0.3-0.4,0.5-0.2l24.5,25.3c0,0,0.1,0.1,0.2,0.1h10.4
					C712.8,157,713,156.6,712.8,156.5z"/>
			</g>
			<g>
				<polygon class="st3" points="192.6,69.7 142.7,106.2 152,84.6 				"/>
				<polygon class="st3" points="77.5,69.7 127,106.5 118.1,84.6 				"/>
				<polygon class="st3" points="174.6,154.3 161.4,174.3 189.8,182.1 197.9,154.7 				"/>
				<polygon class="st3" points="72.2,154.7 80.3,182.1 108.7,174.3 95.5,154.3 				"/>
				<polygon class="st3" points="107.2,120.4 99.3,132.2 127.4,133.5 126.5,103.5 				"/>
				<polygon class="st3" points="162.9,120.4 143.3,103.2 142.7,133.5 170.8,132.2 				"/>
				<polygon class="st3" points="108.7,174.3 125.7,166.2 111.1,154.9 				"/>
				<polygon class="st3" points="144.4,166.2 161.4,174.3 159,154.9 				"/>
				<polygon class="st4" points="161.4,174.3 144.4,166.2 145.8,177.1 145.6,181.7 				"/>
				<polygon class="st4" points="108.7,174.3 124.5,181.7 124.4,177.1 125.7,166.2 				"/>
				<polygon class="st5" points="124.8,147.7 110.7,143.6 120.6,139.1 				"/>
				<polygon class="st5" points="145.3,147.7 149.5,139.1 159.5,143.6 				"/>
				<polygon class="st6" points="108.7,174.3 111.2,154.3 95.5,154.7 				"/>
				<polygon class="st6" points="158.9,154.3 161.4,174.3 174.6,154.7 				"/>
				<polygon class="st6" points="170.8,132.2 142.7,133.5 145.3,147.7 149.5,139.1 159.5,143.6 				"/>
				<polygon class="st6" points="110.7,143.6 120.6,139.1 124.8,147.7 127.4,133.5 99.3,132.2 				"/>
				<polygon class="st3" points="99.3,132.2 111.1,154.9 110.7,143.6 				"/>
				<polygon class="st3" points="159.5,143.6 159,154.9 170.8,132.2 				"/>
				<polygon class="st3" points="127.4,133.5 124.8,147.7 128.1,164.6 128.8,142.4 				"/>
				<polygon class="st3" points="142.7,133.5 141.3,142.3 142,164.6 145.3,147.7 				"/>
				<polygon class="st1" points="145.3,147.7 142,164.6 144.4,166.2 159,154.9 159.5,143.6 				"/>
				<polygon class="st1" points="110.7,143.6 111.1,154.9 125.7,166.2 128.1,164.6 124.8,147.7 				"/>
				<polygon class="st7" points="145.6,181.7 145.8,177.1 144.5,176.1 125.6,176.1 124.4,177.1 124.5,181.7 108.7,174.3 
					114.2,178.8 125.4,186.5 144.6,186.5 155.9,178.8 161.4,174.3 				"/>
				<polygon class="st5" points="144.4,166.2 142,164.6 128.1,164.6 125.7,166.2 124.4,177.1 125.6,176.1 144.5,176.1 145.8,177.1 
									"/>
				<polygon class="st8" points="194.7,108.5 198.9,88.4 192.6,69.7 144.4,104.9 162.9,120.4 189.1,128 194.9,121.3 192.4,119.5 
					196.4,115.9 193.3,113.6 197.3,110.5 				"/>
				<polygon class="st8" points="71.2,88.4 75.4,108.5 72.7,110.5 76.8,113.6 73.7,115.9 77.7,119.5 75.2,121.3 81,128 107.2,120.4 
					125.7,104.9 77.5,69.7 				"/>
				<polygon class="st1" points="189.1,128 162.9,120.4 170.8,132.2 159,154.9 174.6,154.7 197.9,154.7 				"/>
				<polygon class="st1" points="107.2,120.4 81,128 72.2,154.7 95.5,154.7 111.1,154.9 99.3,132.2 				"/>
				<polygon class="st1" points="142.7,133.5 144.4,104.9 152,84.6 118.1,84.6 125.7,104.9 127.4,133.5 128,142.4 128.1,164.6 
					142,164.6 142.1,142.4 				"/>
			</g>
		</g>
	</g>
</g>
</svg>
